<?xml version="1.0" encoding="UTF-8"?>
<svg version="1.1" xmlns="http://www.w3.org/2000/svg" width="512" height="512">
<path d="M0 0 C0.99 -0.03287109 0.99 -0.03287109 2 -0.06640625 C5.18433787 0.93491874 6.20970753 2.80204389 8 5.5625 C8.45410156 9.06762695 8.45410156 9.06762695 8.390625 13.05078125 C8.38496521 13.75397995 8.37930542 14.45717865 8.37347412 15.1816864 C8.35119769 17.41350248 8.30102373 19.64367461 8.25 21.875 C8.22992343 23.39385691 8.21167468 24.91273916 8.1953125 26.43164062 C8.15136357 30.14245545 8.08239921 33.8523171 8 37.5625 C8.68199463 37.54219727 9.36398926 37.52189453 10.06665039 37.50097656 C11.41231079 37.47729004 11.41231079 37.47729004 12.78515625 37.453125 C13.67340088 37.43282227 14.56164551 37.41251953 15.47680664 37.39160156 C20.12057045 37.70612838 22.80481867 40.24367923 25.8125 43.5625 C28.28565085 47.7278067 28.1178737 51.74430611 28.09765625 56.515625 C28.09553383 57.50595734 28.09553383 57.50595734 28.09336853 58.51629639 C28.08779245 60.61507794 28.07524447 62.71375095 28.0625 64.8125 C28.0574819 66.23958179 28.05291954 67.66666525 28.04882812 69.09375 C28.03868377 72.58340832 28.01910401 76.07283332 28 79.5625 C32.62 79.5625 37.24 79.5625 42 79.5625 C42.33 77.9125 42.66 76.2625 43 74.5625 C45.40403929 71.8444562 46.84647856 71.57750998 50.48339844 71.22192383 C51.85881543 71.22239577 53.23429315 71.23916632 54.609375 71.26953125 C55.69958954 71.27589851 55.69958954 71.27589851 56.81182861 71.28239441 C59.12493504 71.2991387 61.43715855 71.33678115 63.75 71.375 C65.32160197 71.39005242 66.89321764 71.40373985 68.46484375 71.41601562 C72.31023415 71.44902805 76.15496756 71.50077944 80 71.5625 C79.97905273 70.61930908 79.95810547 69.67611816 79.93652344 68.7043457 C79.86818572 65.19122476 79.81812253 61.67881415 79.78027344 58.1652832 C79.76020797 56.6472659 79.73294866 55.12932541 79.69824219 53.61157227 C79.64949607 51.42444878 79.62698195 49.23835048 79.609375 47.05078125 C79.58842773 45.73634033 79.56748047 44.42189941 79.54589844 43.06762695 C80.07167188 39.00927786 81.11027249 37.40150146 84 34.5625 C87.05239119 33.38850339 88.53790342 33.43354281 91.6875 34.3125 C94 35.5625 94 35.5625 96 38.5625 C96.1712914 41.10479597 96.23242934 43.53439481 96.1953125 46.07421875 C96.19106766 47.16655571 96.19106766 47.16655571 96.18673706 48.28096008 C96.17555257 50.60414137 96.15045166 52.92693547 96.125 55.25 C96.11496794 56.8261663 96.10584248 58.40233865 96.09765625 59.97851562 C96.07561896 63.83999267 96.04110141 67.70118071 96 71.5625 C97.20110413 71.55583817 98.40220825 71.54917633 99.63970947 71.54231262 C110.99680644 71.48131695 122.35386988 71.43643901 133.7110939 71.40706348 C139.54900222 71.39145321 145.38677756 71.37030004 151.22460938 71.33618164 C156.86563156 71.30342235 162.50652639 71.28561215 168.14763641 71.27786827 C170.29245761 71.2723544 172.43727237 71.26158766 174.58203888 71.24530983 C192.39649954 71.11556685 208.17732514 71.99244464 221.875 84.9375 C233.50391492 97.6981828 236.15938885 111.8508114 236.13371277 128.61810303 C236.1371111 130.25724399 236.1371111 130.25724399 236.14057809 131.92949891 C236.14689314 135.58028876 236.14609033 139.23104124 236.14526367 142.88183594 C236.14825672 145.50390674 236.15165959 148.12597709 236.15544128 150.74804688 C236.16372959 157.12512389 236.1664953 163.50219167 236.16705366 169.87927362 C236.1675297 175.06586158 236.16958883 180.25244651 236.17275429 185.43903351 C236.18155601 200.16143952 236.18617444 214.88383826 236.18542381 229.60624692 C236.18536388 230.79550528 236.18536388 230.79550528 236.18530273 232.00878906 C236.18524141 233.19950859 236.18524141 233.19950859 236.18517885 234.41428307 C236.18477255 247.27406792 236.19433934 260.13382348 236.2084411 272.99359986 C236.22282444 286.21505825 236.2297102 299.43650236 236.22884732 312.65796876 C236.22851602 320.0739098 236.23123367 327.48982012 236.24202538 334.90575409 C236.25211336 341.8825129 236.25177504 348.85920597 236.24450874 355.83596802 C236.24346479 358.39167628 236.24581449 360.9473886 236.2518692 363.5030899 C236.2596189 367.00178961 236.25492451 370.50026727 236.24723816 373.9989624 C236.25238172 375.00132549 236.25752529 376.00368858 236.26282471 377.03642631 C236.18300199 393.56942066 232.54346418 406.73521532 220.8984375 418.7265625 C210.21744317 428.80368436 199.24987607 431.88118015 184.91430664 431.78955078 C183.11323959 431.78998886 183.11323959 431.78998886 181.27578735 431.79043579 C178.00144366 431.78928547 174.72727339 431.77929084 171.45296407 431.76528788 C168.02435012 431.75274133 164.59573236 431.75160693 161.167099 431.74923706 C154.68263595 431.74303378 148.19824076 431.72663865 141.71380752 431.70653808 C134.32806373 431.68414312 126.94231661 431.67317662 119.55654728 431.66314721 C104.37099379 431.64227133 89.1855037 431.60711788 74 431.5625 C73.91975022 436.77412793 73.89985794 441.98145986 73.93286133 447.19360352 C73.93591978 448.96155247 73.92325785 450.72960831 73.89379883 452.49731445 C73.61369633 465.19170525 73.61369633 465.19170525 79.38354492 476.08642578 C80.88659743 477.61447452 82.42158343 479.11243073 84 480.5625 C84.98691277 481.65363519 85.96440358 482.75348835 86.92578125 483.8671875 C87.71339844 484.71539062 88.50101562 485.56359375 89.3125 486.4375 C91.70254665 489.01613327 93.92239467 491.44980632 95.91796875 494.34765625 C97.83742245 496.82040896 97.83742245 496.82040896 100.875 497.12890625 C101.90625 497.12761719 102.9375 497.12632812 104 497.125 C109.44186047 497.13180233 109.44186047 497.13180233 112.34375 499.37109375 C114 501.5625 114 501.5625 114.5 505.0625 C114 508.5625 114 508.5625 112.61641693 510.74950409 C108.51475696 513.59167067 104.51484846 513.1139058 99.6373291 513.07043457 C98.5709265 513.07667453 97.5045239 513.0829145 96.40580606 513.08934355 C92.82044491 513.10534114 89.23575723 513.09264233 85.65039062 513.08007812 C83.08489077 513.08549621 80.51939402 513.09261709 77.9539032 513.10131836 C71.70187251 513.11769259 65.4500926 513.11525704 59.19805849 513.1036678 C54.11760339 513.09463962 49.03720214 513.09340679 43.95674133 513.09776306 C42.87273268 513.09868246 42.87273268 513.09868246 41.76682487 513.09962043 C40.29879692 513.10089931 38.83076898 513.10219617 37.36274105 513.1035108 C23.59227538 513.11492099 9.82191617 513.10179604 -3.94853204 513.08030933 C-15.76798745 513.06243792 -27.58728572 513.0655419 -39.40673828 513.08398438 C-53.1274272 513.10538337 -66.84802279 513.11382232 -80.56872606 513.10153532 C-82.0313978 513.1002611 -83.49406956 513.09900362 -84.95674133 513.09776306 C-85.67643131 513.09714596 -86.39612129 513.09652886 -87.13762006 513.09589306 C-92.21283779 513.09243723 -97.28799639 513.09827349 -102.36320496 513.10768127 C-109.1922443 513.12006165 -116.02094048 513.11126596 -122.84996605 513.08810425 C-125.36064852 513.08280193 -127.87135592 513.08435675 -130.38202858 513.09315491 C-133.80080357 513.10403339 -137.21861598 513.09043887 -140.6373291 513.07043457 C-141.63848676 513.07935746 -142.63964442 513.08828034 -143.67114019 513.09747362 C-150.33767228 513.02144729 -150.33767228 513.02144729 -153.61641693 510.74950409 C-155.66152117 507.51684575 -155.5342427 505.30219889 -155 501.5625 C-153.35546875 499.3515625 -153.35546875 499.3515625 -151 497.5625 C-148.08203125 497.3046875 -148.08203125 497.3046875 -144.8125 497.4375 C-140.84515982 497.24245758 -138.673597 497.06484353 -135.46484375 494.671875 C-133.14242174 492.06683021 -131.06331375 489.37679927 -129 486.5625 C-127.42431422 484.63954137 -125.84102987 482.72278257 -124.25 480.8125 C-123.55390625 479.95140625 -122.8578125 479.0903125 -122.140625 478.203125 C-120 475.5625 -120 475.5625 -117.41040039 472.95361328 C-114.21584384 469.10323327 -114.269149 465.51103114 -114.29296875 460.6640625 C-114.27028679 459.41162247 -114.27028679 459.41162247 -114.24714661 458.13388062 C-114.20439164 455.48480975 -114.19544381 452.83688099 -114.1875 450.1875 C-114.16434607 448.38408448 -114.13897887 446.58069593 -114.11132812 444.77734375 C-114.04859678 440.37229542 -114.01616623 435.96795535 -114 431.5625 C-114.62284756 431.56618717 -115.24569511 431.56987434 -115.88741684 431.57367325 C-131.08820038 431.66226093 -146.28890395 431.72832411 -161.48987961 431.76974869 C-168.84116678 431.79031713 -176.19228095 431.81832724 -183.54345703 431.86425781 C-189.95560081 431.90430193 -196.36761921 431.92997431 -202.77988458 431.93885398 C-206.17079469 431.94403927 -209.56134633 431.95610455 -212.95214081 431.98542023 C-216.75053292 432.01463529 -220.54819255 432.01844828 -224.34667969 432.01660156 C-226.00717598 432.03817322 -226.00717598 432.03817322 -227.70121765 432.06018066 C-242.11589958 431.98479678 -252.75908684 426.43206293 -263.25 416.875 C-274.60677796 405.08142289 -276.15750604 389.8796466 -276.13371277 374.38664246 C-276.13597833 373.29302739 -276.13824388 372.19941232 -276.14057809 371.07265741 C-276.14688493 367.42497362 -276.14609086 363.7773273 -276.14526367 360.12963867 C-276.14825721 357.50742037 -276.15166019 354.88520251 -276.15544128 352.26298523 C-276.1637243 345.88938743 -276.16649505 339.51579888 -276.16705366 333.14219614 C-276.1675299 327.95849251 -276.16958999 322.77479192 -276.17275429 317.59108925 C-276.18155409 302.87459139 -276.18617467 288.1581008 -276.18542381 273.44160029 C-276.18538386 272.64932678 -276.1853439 271.85705328 -276.18530273 271.04077148 C-276.18526185 270.24752396 -276.18522097 269.45427644 -276.18517885 268.63699112 C-276.18477247 255.78373636 -276.19434182 242.93051091 -276.2084411 230.07726463 C-276.22282429 216.86029464 -276.22971023 203.64333892 -276.22884732 190.42636091 C-276.22851605 183.01378822 -276.23123271 175.60124626 -276.24202538 168.18868065 C-276.25211303 161.21601245 -276.25177522 154.24341004 -276.24450874 147.2707386 C-276.2434648 144.71664205 -276.24581445 142.16254143 -276.2518692 139.60845184 C-276.25961892 136.11199513 -276.25492452 132.61576061 -276.24723816 129.11930847 C-276.25238172 128.1176275 -276.25752529 127.11594653 -276.26282471 126.0839116 C-276.18800618 110.59742632 -272.71884977 97.02669876 -262.03515625 85.4296875 C-249.93241212 73.91785493 -236.54472578 71.24249256 -220.40209961 71.33544922 C-219.05103565 71.3360144 -217.69997108 71.33569469 -216.34890747 71.33456421 C-212.7069398 71.33399386 -209.06510571 71.3456962 -205.4231689 71.35971212 C-201.60752346 71.37227293 -197.79187447 71.37339418 -193.97621155 71.37576294 C-186.76224942 71.38196206 -179.54834841 71.39835151 -172.33441311 71.41846192 C-164.1167152 71.4408699 -155.89901426 71.45182664 -147.68129337 71.46185279 C-130.78749365 71.48271924 -113.8937533 71.51786452 -97 71.5625 C-96.86851562 70.45777344 -96.73703125 69.35304688 -96.6015625 68.21484375 C-96 64.5625 -96 64.5625 -94.375 62.125 C-91.0382229 59.92975191 -88.91451456 60.00328363 -85 60.5625 C-82.5625 62.125 -82.5625 62.125 -81 64.5625 C-80.9376337 66.89499971 -80.93196204 69.23015884 -81 71.5625 C-79.99622314 71.53631592 -78.99244629 71.51013184 -77.95825195 71.4831543 C-74.22182648 71.39241832 -70.48549765 71.33516738 -66.74829102 71.2878418 C-65.13321539 71.26275041 -63.51825274 71.22866874 -61.90356445 71.18530273 C-59.57735294 71.12440714 -57.25264641 71.09623876 -54.92578125 71.07421875 C-53.84892815 71.03550911 -53.84892815 71.03550911 -52.75032043 70.99601746 C-48.81536143 70.99383313 -47.14223371 71.45124261 -44.00463867 73.90551758 C-42 76.5625 -42 76.5625 -42 79.5625 C-37.38 79.5625 -32.76 79.5625 -28 79.5625 C-28.03480469 77.39429687 -28.06960937 75.22609375 -28.10546875 72.9921875 C-28.12890799 70.87729202 -28.14709955 68.76241137 -28.16479492 66.64746094 C-28.17982196 65.18482925 -28.20024955 63.72224218 -28.22631836 62.25976562 C-28.26297267 60.1496272 -28.27978676 58.04008774 -28.29296875 55.9296875 C-28.31653442 54.02872314 -28.31653442 54.02872314 -28.34057617 52.08935547 C-27.84279027 46.93450592 -26.27119691 43.7096777 -22.4375 40.25 C-18.90382984 37.80361297 -17.13713925 37.44535719 -12.875 37.5 C-11.96492188 37.50902344 -11.05484375 37.51804688 -10.1171875 37.52734375 C-9.41851562 37.53894531 -8.71984375 37.55054688 -8 37.5625 C-8.02094727 36.5837793 -8.04189453 35.60505859 -8.06347656 34.59667969 C-8.13597963 30.95897096 -8.18183633 27.32132584 -8.21972656 23.68310547 C-8.2398188 22.10975396 -8.26709799 20.53647692 -8.30175781 18.96337891 C-8.35038494 16.69935728 -8.37299135 14.43632427 -8.390625 12.171875 C-8.41127014 11.47068542 -8.43191528 10.76949585 -8.45318604 10.04705811 C-8.4547594 6.60799863 -8.24156416 4.87283853 -6.10058594 2.12231445 C-3.8388651 0.44284741 -2.78373233 -0.00543698 0 0 Z " fill="#98E4FA" transform="translate(276,-0.5625)"/>
<path d="M0 0 C2.42869909 3.64304864 2.25675675 6.30722339 2.1953125 10.51171875 C2.19106766 11.60405571 2.19106766 11.60405571 2.18673706 12.71846008 C2.17555257 15.04164137 2.15045166 17.36443547 2.125 19.6875 C2.11496794 21.2636663 2.10584248 22.83983865 2.09765625 24.41601562 C2.07561896 28.27749267 2.04110141 32.13868071 2 36 C3.20110413 35.99333817 4.40220825 35.98667633 5.63970947 35.97981262 C16.99680644 35.91881695 28.35386988 35.87393901 39.7110939 35.84456348 C45.54900222 35.82895321 51.38677756 35.80780004 57.22460938 35.77368164 C62.86563156 35.74092235 68.50652639 35.72311215 74.14763641 35.71536827 C76.29245761 35.7098544 78.43727237 35.69908766 80.58203888 35.68280983 C98.39649954 35.55306685 114.17732514 36.42994464 127.875 49.375 C139.50391492 62.1356828 142.15938885 76.2883114 142.13371277 93.05560303 C142.1371111 94.69474399 142.1371111 94.69474399 142.14057809 96.36699891 C142.14689314 100.01778876 142.14609033 103.66854124 142.14526367 107.31933594 C142.14825672 109.94140674 142.15165959 112.56347709 142.15544128 115.18554688 C142.16372959 121.56262389 142.1664953 127.93969167 142.16705366 134.31677362 C142.1675297 139.50336158 142.16958883 144.68994651 142.17275429 149.87653351 C142.18155601 164.59893952 142.18617444 179.32133826 142.18542381 194.04374692 C142.18536388 195.23300528 142.18536388 195.23300528 142.18530273 196.44628906 C142.18524141 197.63700859 142.18524141 197.63700859 142.18517885 198.85178307 C142.18477255 211.71156792 142.19433934 224.57132348 142.2084411 237.43109986 C142.22282444 250.65255825 142.2297102 263.87400236 142.22884732 277.09546876 C142.22851602 284.5114098 142.23123367 291.92732012 142.24202538 299.34325409 C142.25211336 306.3200129 142.25177504 313.29670597 142.24450874 320.27346802 C142.24346479 322.82917628 142.24581449 325.3848886 142.2518692 327.9405899 C142.2596189 331.43928961 142.25492451 334.93776727 142.24723816 338.4364624 C142.25238172 339.43882549 142.25752529 340.44118858 142.26282471 341.47392631 C142.18300199 358.00692066 138.54346418 371.17271532 126.8984375 383.1640625 C116.21744317 393.24118436 105.24987607 396.31868015 90.91430664 396.22705078 C89.11323959 396.22748886 89.11323959 396.22748886 87.27578735 396.22793579 C84.00144366 396.22678547 80.72727339 396.21679084 77.45296407 396.20278788 C74.02435012 396.19024133 70.59573236 396.18910693 67.167099 396.18673706 C60.68263595 396.18053378 54.19824076 396.16413865 47.71380752 396.14403808 C40.32806373 396.12164312 32.94231661 396.11067662 25.55654728 396.10064721 C10.37099379 396.07977133 -4.8144963 396.04461788 -20 396 C-20.08024978 401.21162793 -20.10014206 406.41895986 -20.06713867 411.63110352 C-20.06408022 413.39905247 -20.07674215 415.16710831 -20.10620117 416.93481445 C-20.38630367 429.62920525 -20.38630367 429.62920525 -14.61645508 440.52392578 C-13.11340257 442.05197452 -11.57841657 443.54993073 -10 445 C-9.01308723 446.09113519 -8.03559642 447.19098835 -7.07421875 448.3046875 C-6.28660156 449.15289062 -5.49898438 450.00109375 -4.6875 450.875 C-2.29745335 453.45363327 -0.07760533 455.88730632 1.91796875 458.78515625 C3.83742245 461.25790896 3.83742245 461.25790896 6.875 461.56640625 C7.90625 461.56511719 8.9375 461.56382812 10 461.5625 C15.44186047 461.56930233 15.44186047 461.56930233 18.34375 463.80859375 C20 466 20 466 20.5 469.5 C20 473 20 473 18.61641693 475.18700409 C14.51475696 478.02917067 10.51484846 477.5514058 5.6373291 477.50793457 C4.0377252 477.51729451 4.0377252 477.51729451 2.40580606 477.52684355 C-1.17955509 477.54284114 -4.76424277 477.53014233 -8.34960938 477.51757812 C-10.91510923 477.52299621 -13.48060598 477.53011709 -16.0460968 477.53881836 C-22.29812749 477.55519259 -28.5499074 477.55275704 -34.80194151 477.5411678 C-39.88239661 477.53213962 -44.96279786 477.53090679 -50.04325867 477.53526306 C-51.12726732 477.53618246 -51.12726732 477.53618246 -52.23317513 477.53712043 C-53.70120308 477.53839931 -55.16923102 477.53969617 -56.63725895 477.5410108 C-70.40772462 477.55242099 -84.17808383 477.53929604 -97.94853204 477.51780933 C-109.76798745 477.49993792 -121.58728572 477.5030419 -133.40673828 477.52148438 C-147.1274272 477.54288337 -160.84802279 477.55132232 -174.56872606 477.53903532 C-176.0313978 477.5377611 -177.49406956 477.53650362 -178.95674133 477.53526306 C-179.67643131 477.53464596 -180.39612129 477.53402886 -181.13762006 477.53339306 C-186.21283779 477.52993723 -191.28799639 477.53577349 -196.36320496 477.54518127 C-203.1922443 477.55756165 -210.02094048 477.54876596 -216.84996605 477.52560425 C-219.36064852 477.52030193 -221.87135592 477.52185675 -224.38202858 477.53065491 C-227.80080357 477.54153339 -231.21861598 477.52793887 -234.6373291 477.50793457 C-236.13906559 477.5213189 -236.13906559 477.5213189 -237.67114019 477.53497362 C-244.33767228 477.45894729 -244.33767228 477.45894729 -247.61641693 475.18700409 C-249.66152117 471.95434575 -249.5342427 469.73969889 -249 466 C-247.35546875 463.7890625 -247.35546875 463.7890625 -245 462 C-242.08203125 461.7421875 -242.08203125 461.7421875 -238.8125 461.875 C-234.84515982 461.67995758 -232.673597 461.50234353 -229.46484375 459.109375 C-227.14242174 456.50433021 -225.06331375 453.81429927 -223 451 C-221.42431422 449.07704137 -219.84102987 447.16028257 -218.25 445.25 C-217.55390625 444.38890625 -216.8578125 443.5278125 -216.140625 442.640625 C-214 440 -214 440 -211.41040039 437.39111328 C-208.21584384 433.54073327 -208.269149 429.94853114 -208.29296875 425.1015625 C-208.27028679 423.84912247 -208.27028679 423.84912247 -208.24714661 422.57138062 C-208.20439164 419.92230975 -208.19544381 417.27438099 -208.1875 414.625 C-208.16434607 412.82158448 -208.13897887 411.01819593 -208.11132812 409.21484375 C-208.04859678 404.80979542 -208.01616623 400.40545535 -208 396 C-208.62284756 396.00368717 -209.24569511 396.00737434 -209.88741684 396.01117325 C-225.08820038 396.09976093 -240.28890395 396.16582411 -255.48987961 396.20724869 C-262.84116678 396.22781713 -270.19228095 396.25582724 -277.54345703 396.30175781 C-283.95560081 396.34180193 -290.36761921 396.36747431 -296.77988458 396.37635398 C-300.17079469 396.38153927 -303.56134633 396.39360455 -306.95214081 396.42292023 C-310.75053292 396.45213529 -314.54819255 396.45594828 -318.34667969 396.45410156 C-320.00717598 396.47567322 -320.00717598 396.47567322 -321.70121765 396.49768066 C-336.11589958 396.42229678 -346.75908684 390.86956293 -357.25 381.3125 C-368.60677796 369.51892289 -370.15750604 354.3171466 -370.13371277 338.82414246 C-370.13597833 337.73052739 -370.13824388 336.63691232 -370.14057809 335.51015741 C-370.14688493 331.86247362 -370.14609086 328.2148273 -370.14526367 324.56713867 C-370.14825721 321.94492037 -370.15166019 319.32270251 -370.15544128 316.70048523 C-370.1637243 310.32688743 -370.16649505 303.95329888 -370.16705366 297.57969614 C-370.1675299 292.39599251 -370.16958999 287.21229192 -370.17275429 282.02858925 C-370.18155409 267.31209139 -370.18617467 252.5956008 -370.18542381 237.87910029 C-370.18538386 237.08682678 -370.1853439 236.29455328 -370.18530273 235.47827148 C-370.18526185 234.68502396 -370.18522097 233.89177644 -370.18517885 233.07449112 C-370.18477247 220.22123636 -370.19434182 207.36801091 -370.2084411 194.51476463 C-370.22282429 181.29779464 -370.22971023 168.08083892 -370.22884732 154.86386091 C-370.22851605 147.45128822 -370.23123271 140.03874626 -370.24202538 132.62618065 C-370.25211303 125.65351245 -370.25177522 118.68091004 -370.24450874 111.7082386 C-370.2434648 109.15414205 -370.24581445 106.60004143 -370.2518692 104.04595184 C-370.25961892 100.54949513 -370.25492452 97.05326061 -370.24723816 93.55680847 C-370.25238172 92.5551275 -370.25752529 91.55344653 -370.26282471 90.5214116 C-370.18800618 75.03492632 -366.71884977 61.46419876 -356.03515625 49.8671875 C-343.93241212 38.35535493 -330.54472578 35.67999256 -314.40209961 35.77294922 C-313.05103565 35.7735144 -311.69997108 35.77319469 -310.34890747 35.77206421 C-306.7069398 35.77149386 -303.06510571 35.7831962 -299.4231689 35.79721212 C-295.60752346 35.80977293 -291.79187447 35.81089418 -287.97621155 35.81326294 C-280.76224942 35.81946206 -273.54834841 35.83585151 -266.33441311 35.85596192 C-258.1167152 35.8783699 -249.89901426 35.88932664 -241.68129337 35.89935279 C-224.78749365 35.92021924 -207.8937533 35.95536452 -191 36 C-190.86851562 34.89527344 -190.73703125 33.79054687 -190.6015625 32.65234375 C-190 29 -190 29 -188.375 26.5625 C-185.0382229 24.36725191 -182.91451456 24.44078363 -179 25 C-176.5625 26.5625 -176.5625 26.5625 -175 29 C-174.9376337 31.33249971 -174.93196204 33.66765884 -175 36 C-173.99622314 35.97381592 -172.99244629 35.94763184 -171.95825195 35.9206543 C-168.22182648 35.82991832 -164.48549765 35.77266738 -160.74829102 35.7253418 C-159.13321539 35.70025041 -157.51825274 35.66616874 -155.90356445 35.62280273 C-153.57735294 35.56190714 -151.25264641 35.53373876 -148.92578125 35.51171875 C-147.84892815 35.47300911 -147.84892815 35.47300911 -146.75032043 35.43351746 C-142.84279246 35.43134836 -141.13771776 35.89407103 -138.00463867 38.30395508 C-136 41 -136 41 -136 44.625 C-137.36025041 49.21584513 -137.36025041 49.21584513 -140 51 C-142.72906362 51.26156261 -145.2246099 51.34921131 -147.94921875 51.29296875 C-148.72183548 51.28872391 -149.49445221 51.28447906 -150.29048157 51.28010559 C-152.75650992 51.26332183 -155.22171896 51.22567147 -157.6875 51.1875 C-159.36001423 51.17245271 -161.03254128 51.15876438 -162.70507812 51.14648438 C-166.80370078 51.11341946 -170.90171151 51.06164028 -175 51 C-175 55.95 -175 60.9 -175 66 C-172.9890625 65.87625 -172.9890625 65.87625 -170.9375 65.75 C-165.96597106 65.77345061 -162.80458763 66.81625984 -159 70 C-155.07355069 75.55746531 -154.415081 79.67958791 -154.46655273 86.38842773 C-154.45793716 87.30318878 -154.44932159 88.21794983 -154.44044495 89.16043091 C-154.41784004 92.16844404 -154.42451402 95.17552134 -154.43359375 98.18359375 C-154.42835563 100.28435033 -154.42207845 102.38510456 -154.41481018 104.4858551 C-154.40441596 108.88301684 -154.40895336 113.27985477 -154.42358398 117.67700195 C-154.44076712 123.30046287 -154.41727661 128.92290156 -154.38209438 134.54624844 C-154.36009022 138.88298765 -154.36156928 143.21948343 -154.3698597 147.55626106 C-154.37067761 149.62902001 -154.36384487 151.70179712 -154.34908867 153.77450371 C-154.33158788 156.67769308 -154.34623158 159.57906025 -154.36889648 162.48217773 C-154.35135818 163.75501869 -154.35135818 163.75501869 -154.33346558 165.05357361 C-154.42959938 171.13299431 -156.09473552 175.30622068 -160 180 C-163.64526873 182.65110453 -166.3190173 183.12626884 -170.703125 183.0625 C-171.50911133 183.05347656 -172.31509766 183.04445312 -173.14550781 183.03515625 C-174.06348145 183.01775391 -174.06348145 183.01775391 -175 183 C-174.99555878 183.84302673 -174.99111755 184.68605347 -174.98654175 185.55462646 C-174.94646453 193.50008582 -174.91601533 201.44551122 -174.89637566 209.39104843 C-174.88593928 213.4759121 -174.87178276 217.56069222 -174.84912109 221.64550781 C-174.82738749 225.58771842 -174.81543027 229.52984867 -174.81024551 233.47211456 C-174.80655069 234.97600825 -174.79933563 236.47989755 -174.78853989 237.98375702 C-174.77401794 240.09050493 -174.77202233 242.19692101 -174.77294922 244.30371094 C-174.768508 245.50284119 -174.76406677 246.70197144 -174.75949097 247.93743896 C-174.99191709 250.89707494 -175.35177223 252.56064644 -177 255 C-180.09173752 256.54586876 -182.59429552 256.29359521 -186 256 C-188.19818115 254.40472412 -188.19818115 254.40472412 -190 252 C-190.48101807 248.8994751 -190.48101807 248.8994751 -190.45410156 245.21191406 C-190.45468567 244.53833359 -190.45526978 243.86475311 -190.45587158 243.17076111 C-190.45309232 240.95185193 -190.42201114 238.73429846 -190.390625 236.515625 C-190.38316197 234.97435235 -190.37746933 233.4330702 -190.37347412 231.89178467 C-190.35822246 227.84077627 -190.31894539 223.79034415 -190.2746582 219.73956299 C-190.23369498 215.60379837 -190.2154609 211.46794038 -190.1953125 207.33203125 C-190.15245006 199.2210901 -190.08420515 191.11061679 -190 183 C-190.60545654 183.01812744 -191.21091309 183.03625488 -191.8347168 183.05493164 C-192.63562744 183.06903076 -193.43653809 183.08312988 -194.26171875 183.09765625 C-195.05280029 183.11578369 -195.84388184 183.13391113 -196.65893555 183.15258789 C-200.54620488 182.89922014 -203.05581153 181.4628729 -206 179 C-209.9626333 173.40800694 -210.58094833 169.24287513 -210.51757812 162.48803711 C-210.5245874 161.56030991 -210.53159668 160.6325827 -210.53881836 159.67674255 C-210.55634627 156.62663364 -210.54479488 153.5774612 -210.53125 150.52734375 C-210.53394617 148.39937666 -210.53782964 146.27141076 -210.54284668 144.14344788 C-210.54873449 139.69080844 -210.54020081 135.23849064 -210.52148438 130.78588867 C-210.49868163 125.08387915 -210.51183121 119.38262223 -210.53577423 113.68064022 C-210.55023958 109.28909144 -210.54562301 104.89772064 -210.53526306 100.50616646 C-210.53259855 98.40385409 -210.53585582 96.30152547 -210.54518127 94.1992321 C-210.55536031 91.25990963 -210.53982699 88.32180063 -210.51757812 85.38256836 C-210.52567505 84.51746643 -210.53377197 83.6523645 -210.54211426 82.76104736 C-210.46649165 77.35791329 -209.57370922 74.29510713 -206 70 C-202.22719167 66.58650675 -199.58754871 65.7640185 -194.625 65.75 C-193.09875 65.8325 -191.5725 65.915 -190 66 C-190 61.05 -190 56.1 -190 51 C-207.54236183 51.03808103 -225.08447408 51.09721782 -242.62666035 51.18390274 C-250.7726758 51.22363228 -258.91859551 51.25605555 -267.06469727 51.27099609 C-274.16875647 51.2840443 -281.27260444 51.31108927 -288.37654465 51.35461307 C-292.13453313 51.37715711 -295.89226178 51.39291496 -299.65032387 51.39188385 C-303.19552938 51.39113302 -306.74016207 51.40925101 -310.28521919 51.44116783 C-312.19031933 51.45360209 -314.09551603 51.44663586 -316.00064087 51.43885803 C-326.94080215 51.57013484 -337.03218694 54.1019271 -345 62 C-351.6339159 70.22960169 -353.29839701 77.35264219 -353.2784729 87.74398804 C-353.28425858 88.82456482 -353.29004425 89.9051416 -353.29600525 91.01846313 C-353.31303714 94.65084776 -353.31587378 98.28310594 -353.31884766 101.91552734 C-353.32825708 104.55951458 -353.33844821 107.20348812 -353.3496151 109.84746742 C-353.37478148 116.21407553 -353.38977538 122.58066695 -353.40119901 128.94731293 C-353.41485513 136.31297196 -353.44119097 143.67856368 -353.4675293 151.04418945 C-353.53080056 170.48776088 -353.57684569 189.93138526 -353.625 209.375 C-353.74875 252.81125 -353.8725 296.2475 -354 341 C-195.6 341 -37.2 341 126 341 C125.9175 297.625625 125.835 254.25125 125.75 209.5625 C125.73420898 195.86177979 125.71841797 182.16105957 125.70214844 168.04516602 C125.66893277 155.77482565 125.66893277 155.77482565 125.63043213 143.50450134 C125.61341189 138.03486416 125.60724037 132.56534162 125.60845947 127.09568787 C125.60982847 120.78532467 125.59737392 114.47516794 125.56796111 108.16487038 C125.55335174 104.93785913 125.54709415 101.71122955 125.55417585 98.48418343 C125.56080765 95.02402331 125.54293308 91.56481579 125.51898193 88.10475159 C125.53062315 86.60369322 125.53062315 86.60369322 125.54249954 85.07231045 C125.4228723 75.27238048 121.7372206 67.12710605 115 60 C107.01737815 53.37648833 97.25481184 51.55060395 87.14404297 51.56762695 C85.75196877 51.55233948 85.75196877 51.55233948 84.33177185 51.53674316 C81.30184714 51.50684605 78.27223974 51.49738307 75.2421875 51.48828125 C73.1265459 51.47141728 71.01091422 51.45326475 68.89529419 51.43388367 C63.35521544 51.3865642 57.81517691 51.35663825 52.27496338 51.33044434 C46.6103115 51.30054742 40.94579793 51.2540486 35.28125 51.20898438 C24.1875568 51.12315666 13.09387749 51.05725668 2 51 C2 61.56 2 72.12 2 83 C4.64 83 7.28 83 10 83 C15.67507225 85.00296668 19.30675089 88.61350179 22 94 C22.11958922 96.94756724 22.17840938 99.87220088 22.19287109 102.82080078 C22.20104858 103.7348317 22.20922607 104.64886261 22.21765137 105.59059143 C22.24252903 108.62549176 22.2590301 111.66034514 22.2734375 114.6953125 C22.27876118 115.73158657 22.28408485 116.76786064 22.28956985 117.83553696 C22.31631551 123.32361868 22.33568332 128.81167758 22.35009766 134.29980469 C22.36672203 139.96253407 22.41147757 145.62467882 22.4624691 151.28718758 C22.49617165 155.64532112 22.5076786 160.00331667 22.51332474 164.36156845 C22.52003203 166.44831672 22.53524044 168.53505608 22.55921555 170.6216774 C22.59092521 173.54920846 22.59089461 176.47517348 22.58349609 179.40283203 C22.59990143 180.25924789 22.61630676 181.11566376 22.63320923 181.99803162 C22.5702356 188.11070439 20.93474515 192.28486666 17 197 C13.35473127 199.65110453 10.6809827 200.12626884 6.296875 200.0625 C5.49088867 200.05347656 4.68490234 200.04445312 3.85449219 200.03515625 C2.93651855 200.01775391 2.93651855 200.01775391 2 200 C2.00999275 201.12966438 2.00999275 201.12966438 2.02018738 202.28215027 C2.08036296 209.38846069 2.12600706 216.49468246 2.15543652 223.60117626 C2.17107533 227.25449198 2.19228048 230.90759671 2.22631836 234.56079102 C2.25897625 238.08805216 2.27686644 241.61511068 2.28463173 245.14251137 C2.29285133 247.13944308 2.31626061 249.13629358 2.33988953 251.13310242 C2.34011612 252.35399063 2.34034271 253.57487885 2.34057617 254.83276367 C2.35056892 256.44159676 2.35056892 256.44159676 2.36076355 258.08293152 C1.94712163 261.42756487 0.98743226 263.30205328 -1 266 C-3.84083641 267.42041821 -5.85477278 267.31452272 -9 267 C-11.84830362 264.85785553 -12.88637686 263.67858147 -13.48101807 260.1272583 C-13.47213562 259.01695251 -13.46325317 257.90664673 -13.45410156 256.76269531 C-13.45364838 254.87118744 -13.45364838 254.87118744 -13.45318604 252.94146729 C-13.43276105 251.57034674 -13.41189709 250.19923267 -13.390625 248.828125 C-13.38316117 247.42137456 -13.3774689 246.01461369 -13.37347412 244.60784912 C-13.3582286 240.91191718 -13.31895731 237.21661773 -13.2746582 233.52093506 C-13.23368143 229.74711665 -13.21545804 225.97319568 -13.1953125 222.19921875 C-13.15246099 214.79919136 -13.08422405 207.39968443 -13 200 C-13.68199463 200.02030273 -14.36398926 200.04060547 -15.06665039 200.06152344 C-15.96375732 200.07731445 -16.86086426 200.09310547 -17.78515625 200.109375 C-18.67340088 200.12967773 -19.56164551 200.14998047 -20.47680664 200.17089844 C-25.1378868 199.85519877 -27.84311451 197.3164559 -30.8125 193.9375 C-33.53589887 189.49405974 -33.16158286 184.97378603 -33.17700195 179.94213867 C-33.18357315 179.01499557 -33.19014435 178.08785248 -33.19691467 177.13261414 C-33.21664313 174.06106487 -33.22830872 170.98956446 -33.23828125 167.91796875 C-33.24235678 166.86908289 -33.2464323 165.82019703 -33.25063133 164.73952675 C-33.27148922 159.188902 -33.28579269 153.63830195 -33.29516602 148.08764648 C-33.30623539 142.35421907 -33.34064243 136.62117923 -33.38033772 130.88788891 C-33.4064778 126.47922543 -33.4148555 122.07065471 -33.41844749 117.66192055 C-33.42331946 115.54841809 -33.43495072 113.43491995 -33.45348549 111.32149315 C-33.47782309 108.36269737 -33.47692168 105.40491007 -33.4699707 102.44604492 C-33.48918579 101.13896576 -33.48918579 101.13896576 -33.50878906 99.80548096 C-33.4623685 94.379325 -32.59243745 91.31685163 -29 87 C-23.70738132 82.34891086 -20.55614516 83 -13 83 C-13 72.44 -13 61.88 -13 51 C-16.72023438 51.08701172 -16.72023438 51.08701172 -20.515625 51.17578125 C-22.92167972 51.21479143 -25.32769903 51.24514167 -27.73388672 51.2746582 C-29.40429489 51.29978078 -31.07459337 51.33388552 -32.74462891 51.37719727 C-35.1477362 51.43795399 -37.54938904 51.46623021 -39.953125 51.48828125 C-40.69806213 51.51408768 -41.44299927 51.5398941 -42.21051025 51.56648254 C-46.035539 51.56854492 -47.64674001 51.3348421 -50.46777344 48.66088867 C-52.34941216 45.39320536 -52.71001374 43.70784955 -52 40 C-49.16143658 37.01530675 -47.52466787 36.06623785 -43.40307617 35.54589844 C-42.03287713 35.54652537 -40.66256559 35.5687509 -39.29296875 35.609375 C-38.56757401 35.61503479 -37.84217926 35.62069458 -37.09480286 35.62652588 C-34.79167992 35.64880901 -32.49014776 35.69898513 -30.1875 35.75 C-28.62046528 35.77007566 -27.05340601 35.78832457 -25.48632812 35.8046875 C-21.65694481 35.84864663 -17.82874154 35.91761377 -14 36 C-14.02094727 35.05680908 -14.04189453 34.11361816 -14.06347656 33.1418457 C-14.13181428 29.62872476 -14.18187747 26.11631415 -14.21972656 22.6027832 C-14.23979203 21.0847659 -14.26705134 19.56682541 -14.30175781 18.04907227 C-14.35050393 15.86194878 -14.37301805 13.67585048 -14.390625 11.48828125 C-14.41157227 10.17384033 -14.43251953 8.85939941 -14.45410156 7.50512695 C-13.92703349 3.43678481 -12.92032728 1.82770742 -10 -1 C-6.00471255 -2.33176248 -3.90144863 -1.41870859 0 0 Z " fill="#010101" transform="translate(370,35)"/>
<path d="M0 0 C1.14982361 -0.00137466 2.29964722 -0.00274933 3.48431396 -0.00416565 C4.7416333 -0.00057037 5.99895264 0.0030249 7.29437256 0.00672913 C8.63484698 0.00701127 9.97532156 0.00685273 11.3157959 0.00628662 C14.95182026 0.00599971 18.58781162 0.01187934 22.22382832 0.01886058 C26.02482753 0.02511173 29.8258275 0.02569931 33.62683105 0.02688599 C40.82322969 0.0299941 48.01961314 0.0382005 55.21600509 0.04823548 C63.40941023 0.05941274 71.60281611 0.06491113 79.79622698 0.06993091 C96.64945902 0.08038353 113.50267532 0.09817436 130.355896 0.12025452 C130.355896 5.07025452 130.355896 10.02025452 130.355896 15.12025452 C128.066521 15.24400452 128.066521 15.24400452 125.730896 15.37025452 C120.9553387 15.85659133 118.03975415 16.88564735 114.355896 20.12025452 C110.74301144 24.67543277 110.9230265 28.82843514 110.95184326 34.38929749 C110.94498001 35.31512634 110.93811676 36.2409552 110.93104553 37.19483948 C110.91276663 40.25086367 110.91661708 43.30637495 110.92230225 46.36244202 C110.91774056 48.49087186 110.91243503 50.61930022 110.90641785 52.74772644 C110.89748427 57.2080636 110.89991226 61.66822174 110.90985107 66.1285553 C110.92133344 71.83722325 110.90114139 77.54527197 110.87193394 83.25385857 C110.8535632 87.64972341 110.85386631 92.04544016 110.85957146 96.44133377 C110.8597246 98.54561862 110.85368575 100.64991355 110.84127998 102.75416183 C110.82635784 105.70064039 110.8370569 108.64597894 110.85418701 111.59242249 C110.84451904 112.45707123 110.83485107 113.32171997 110.82489014 114.21257019 C110.89497232 119.98607887 111.98292082 123.39324362 115.355896 128.12025452 C118.74711972 130.23976934 121.46417621 131.14732457 125.355896 132.12025452 C125.355896 166.44025452 125.355896 200.76025452 125.355896 236.12025452 C144.30301241 225.9193034 144.30301241 225.9193034 163.230896 215.68275452 C171.88455171 210.99156221 180.55215078 206.32734522 189.230896 201.68275452 C205.70457101 192.86640403 222.16263044 184.02116138 238.59344482 175.12513733 C240.5816923 174.0493986 242.57109141 172.97578534 244.56170654 171.9044342 C249.57810003 169.19838137 254.55852065 166.44471554 259.50042725 163.60462952 C260.4946167 163.04082581 261.48880615 162.47702209 262.51312256 161.89613342 C264.39762193 160.82529437 266.27391518 159.73983208 268.14007568 158.63734436 C272.23974871 156.323567 274.55777576 155.10465099 279.35198975 155.19837952 C282.355896 156.12025452 282.355896 156.12025452 284.355896 157.74525452 C285.84387147 161.27919626 285.39893538 163.46961668 284.355896 167.12025452 C280.72743491 170.50709736 276.58225043 172.76313656 272.20355225 175.02650452 C271.51584244 175.38769882 270.82813263 175.74889313 270.11958313 176.12103271 C268.6500963 176.89222107 267.17937181 177.66105498 265.70751953 178.42771912 C261.83336569 180.44598748 257.96837066 182.48167891 254.10198975 184.51478577 C252.95585205 185.11653374 252.95585205 185.11653374 251.78656006 185.73043823 C245.81983708 188.8660277 239.88835984 192.06178957 233.980896 195.30775452 C225.84107756 199.77507794 217.6692772 204.18023276 209.480896 208.55775452 C199.7403969 213.76595457 190.01488815 219.00072805 180.30706787 224.26966858 C175.11516213 227.0867006 169.91899486 229.89541528 164.715271 232.69056702 C163.6010376 233.28909485 162.4868042 233.88762268 161.33880615 234.50428772 C159.12509932 235.69322566 156.91123574 236.8818718 154.69720459 238.07020569 C147.28706834 242.05607185 139.91725647 246.1083108 132.6083374 250.27723694 C127.57061427 253.12025452 127.57061427 253.12025452 125.355896 253.12025452 C125.355896 265.00025452 125.355896 276.88025452 125.355896 289.12025452 C231.285896 289.12025452 337.215896 289.12025452 446.355896 289.12025452 C446.355896 289.45025452 446.355896 289.78025452 446.355896 290.12025452 C287.955896 290.12025452 129.555896 290.12025452 -33.644104 290.12025452 C-33.726604 246.74587952 -33.809104 203.37150452 -33.894104 158.68275452 C-33.93052002 144.9820343 -33.96693604 131.28131409 -34.00445557 117.16542053 C-34.02252197 100.44825745 -34.02252197 100.44825745 -34.02587891 92.62475586 C-34.02960881 87.15508075 -34.04428032 81.68556407 -34.06640625 76.21594238 C-34.09189515 69.90563492 -34.10344139 63.59548421 -34.09788381 57.28512489 C-34.09547742 54.05807306 -34.10149348 50.83144167 -34.12096453 47.60443795 C-34.14087229 44.14434254 -34.1360603 40.68512178 -34.12512207 37.2250061 C-34.13677273 36.22430053 -34.14842339 35.22359495 -34.16042709 34.19256496 C-34.08053541 24.78406912 -30.73872975 16.44160445 -24.1519165 9.56166077 C-17.33120044 3.25957058 -9.2504102 -0.00853359 0 0 Z " fill="#61D8F8" transform="translate(49.64410400390625,85.87974548339844)"/>
<path d="M0 0 C157.74 0 315.48 0 478 0 C474.83532042 9.49403874 470.96319678 16.76627416 461.8125 21.5 C460.56053146 22.04552006 459.2866018 22.54209917 458 23 C456.66193141 23.5094538 456.66193141 23.5094538 455.29683113 24.0291996 C451.76714811 25.06856666 448.90490316 25.25050225 445.23117065 25.2515564 C444.57549799 25.25452654 443.91982533 25.25749667 443.2442838 25.26055682 C441.06104004 25.26815721 438.87806848 25.26171938 436.69482422 25.25537109 C435.1240928 25.25812276 433.55336277 25.26180372 431.9826355 25.26634216 C428.60724887 25.27443852 425.23192843 25.27662662 421.85653305 25.27439499 C416.52011465 25.27155837 411.18382824 25.28592552 405.84744263 25.30337524 C390.67549604 25.35037318 375.50355914 25.37435302 360.33154297 25.38085938 C351.94682548 25.38460681 343.56225798 25.40260678 335.17760479 25.43595374 C329.87150293 25.45619293 324.5657872 25.45852638 319.25966239 25.44767356 C315.96198056 25.44507051 312.66452474 25.45904965 309.3669014 25.47775459 C307.8366554 25.48308635 306.30636803 25.48156299 304.77613831 25.47271919 C302.68850354 25.46162569 300.60240272 25.47499379 298.51486206 25.49447632 C296.76223966 25.49611062 296.76223966 25.49611062 294.97421074 25.49777794 C291.35613375 26.10872257 290.13490065 27.05079414 288 30 C287.91083846 33.62649951 287.91083846 33.62649951 289 37 C292.38805161 39.25870108 293.77350741 39.29259413 297.76171875 39.4140625 C298.76936279 39.44967285 299.77700684 39.4852832 300.81518555 39.52197266 C302.7319812 39.57297119 302.7319812 39.57297119 304.6875 39.625 C310.7821875 39.810625 310.7821875 39.810625 317 40 C317 50.89 317 61.78 317 73 C306.75 73.25 306.75 73.25 303.53808594 73.29785156 C298.10336128 73.45960317 298.10336128 73.45960317 293.3203125 75.8203125 C291.6721593 78.09258535 291.6721593 78.09258535 292.125 81.625 C292.70740714 85.04542055 292.70740714 85.04542055 295 87 C297.67179758 87.19001204 297.67179758 87.19001204 300.78515625 87.02734375 C321.2728513 86.70346675 321.2728513 86.70346675 325.61328125 90.296875 C327.80866497 93.10271948 329.42590757 95.81190858 331 99 C331.98202699 100.24007787 332.99660167 101.45622676 334.0625 102.625 C336 105 336 105 336 106 C271.98 106 207.96 106 142 106 C144.51479247 101.80867922 146.82857224 98.83477631 150.125 95.3125 C153.44343799 91.92380124 153.44343799 91.92380124 156 88 C156.80219971 87.9906543 157.60439941 87.98130859 158.4309082 87.97167969 C162.05873639 87.91806258 165.68526292 87.83439702 169.3125 87.75 C170.57513672 87.73582031 171.83777344 87.72164063 173.13867188 87.70703125 C174.34716797 87.67480469 175.55566406 87.64257812 176.80078125 87.609375 C177.91622314 87.58842773 179.03166504 87.56748047 180.1809082 87.54589844 C183.09600057 87.25494223 183.09600057 87.25494223 184.87182617 85.12207031 C186.25260576 82.52485409 186.29807657 80.90624652 186 78 C185.67 77.01 185.34 76.02 185 75 C182.1459185 73.92004525 179.26356976 73.81951916 176.234375 73.68359375 C175.43225586 73.64548584 174.63013672 73.60737793 173.80371094 73.56811523 C172.79598633 73.52501221 171.78826172 73.48190918 170.75 73.4375 C167.5325 73.293125 164.315 73.14875 161 73 C161 62.11 161 51.22 161 40 C164.12952148 39.98541748 167.25904297 39.97083496 170.48339844 39.95581055 C180.81319899 39.90551616 191.14284798 39.83893026 201.47249985 39.76428509 C207.73653634 39.71952153 214.0005069 39.68027851 220.26464844 39.65356445 C226.30775612 39.62759136 232.35061085 39.58723128 238.39356232 39.53681374 C240.70124418 39.52010445 243.00896984 39.50861555 245.3167038 39.50238609 C248.54441467 39.4927893 251.77147239 39.46478242 254.99902344 39.43237305 C256.43616699 39.43452568 256.43616699 39.43452568 257.90234375 39.4367218 C258.78291443 39.42418365 259.66348511 39.41164551 260.57073975 39.39872742 C261.33398434 39.39411845 262.09722893 39.38950949 262.88360214 39.38476086 C265.62544479 38.88629422 267.00669815 37.92875444 269 36 C269.64346951 31.36993255 269.64346951 31.36993255 267.72921854 27.30459923 C265.60683502 25.70337889 264.53338865 25.62543168 261.89500332 25.62641239 C261.05569883 25.61942265 260.21639434 25.6124329 259.35165638 25.60523134 C258.42949756 25.6128074 257.50733874 25.62038345 256.55723572 25.62818909 C255.57759198 25.62436452 254.59794825 25.62053996 253.58861834 25.6165995 C250.29062543 25.60727935 246.99304849 25.61932833 243.69506836 25.63110352 C241.33649521 25.62863676 238.97792315 25.62479962 236.61935425 25.61968994 C231.53161414 25.61133612 226.4439859 25.61217313 221.35624504 25.61987495 C213.98932387 25.63045775 206.62251838 25.62206866 199.25561077 25.60731315 C187.28930588 25.58352609 175.32301684 25.57017393 163.35668945 25.56616211 C162.28206163 25.56579481 162.28206163 25.56579481 161.18572415 25.56542008 C153.20055733 25.56287652 145.21539173 25.56230606 137.23022461 25.56335449 C134.33878581 25.56368749 131.44734701 25.5639729 128.5559082 25.56420898 C127.84248447 25.56427177 127.12906074 25.56433456 126.39401811 25.56439925 C114.48124963 25.5650049 102.56855417 25.55008654 90.65581614 25.52337593 C82.65938128 25.5061936 74.66329034 25.50837596 66.66684234 25.52419865 C61.68415648 25.53000165 56.70160608 25.51924382 51.71894455 25.50395203 C49.41234845 25.50023004 47.10572948 25.50332153 44.79915428 25.51382256 C41.6429783 25.52723082 38.48778682 25.51595084 35.33164978 25.49879456 C34.42510601 25.50860133 33.51856225 25.51840811 32.58454746 25.52851206 C22.27260458 25.41310446 14.60951099 21.54897264 7.20703125 14.51953125 C3.80550864 10.63637712 0 5.37049857 0 0 Z " fill="#EAE7EA" transform="translate(17,391)"/>
<path d="M0 0 C5.61 0 11.22 0 17 0 C17.99 1.98 18.98 3.96 20 6 C22.62723396 7.31361698 24.72610561 7.21253909 27.6640625 7.31640625 C29.1792749 7.37356812 29.1792749 7.37356812 30.72509766 7.43188477 C32.01206543 7.47498779 33.2990332 7.51809082 34.625 7.5625 C40.750625 7.7790625 40.750625 7.7790625 47 8 C47 18.89 47 29.78 47 41 C36.75 41.25 36.75 41.25 33.53808594 41.29785156 C28.10336128 41.45960317 28.10336128 41.45960317 23.3203125 43.8203125 C21.6721593 46.09258535 21.6721593 46.09258535 22.125 49.625 C22.70740714 53.04542055 22.70740714 53.04542055 25 55 C27.67179758 55.19001204 27.67179758 55.19001204 30.78515625 55.02734375 C51.2728513 54.70346675 51.2728513 54.70346675 55.61328125 58.296875 C57.80866497 61.10271948 59.42590757 63.81190858 61 67 C61.98202699 68.24007787 62.99660167 69.45622676 64.0625 70.625 C66 73 66 73 66 74 C1.98 74 -62.04 74 -128 74 C-125.48520753 69.80867922 -123.17142776 66.83477631 -119.875 63.3125 C-116.55656201 59.92380124 -116.55656201 59.92380124 -114 56 C-112.79670044 55.98598145 -112.79670044 55.98598145 -111.5690918 55.97167969 C-107.94126361 55.91806258 -104.31473708 55.83439702 -100.6875 55.75 C-99.42486328 55.73582031 -98.16222656 55.72164063 -96.86132812 55.70703125 C-95.65283203 55.67480469 -94.44433594 55.64257812 -93.19921875 55.609375 C-91.52605591 55.5779541 -91.52605591 55.5779541 -89.8190918 55.54589844 C-86.90399943 55.25494223 -86.90399943 55.25494223 -85.12817383 53.12207031 C-83.74739424 50.52485409 -83.70192343 48.90624652 -84 46 C-84.33 45.01 -84.66 44.02 -85 43 C-87.8540815 41.92004525 -90.73643024 41.81951916 -93.765625 41.68359375 C-94.56774414 41.64548584 -95.36986328 41.60737793 -96.19628906 41.56811523 C-97.20401367 41.52501221 -98.21173828 41.48190918 -99.25 41.4375 C-102.4675 41.293125 -105.685 41.14875 -109 41 C-109 30.11 -109 19.22 -109 8 C-105.87047852 7.98541748 -102.74095703 7.97083496 -99.51660156 7.95581055 C-89.18680101 7.90551616 -78.85715202 7.83893026 -68.52750015 7.76428509 C-62.26346366 7.71952153 -55.9994931 7.68027851 -49.73535156 7.65356445 C-43.69224388 7.62759136 -37.64938915 7.58723128 -31.60643768 7.53681374 C-29.29875582 7.52010445 -26.99103016 7.50861555 -24.6832962 7.50238609 C-21.45558533 7.4927893 -18.22852761 7.46478242 -15.00097656 7.43237305 C-13.56383301 7.43452568 -13.56383301 7.43452568 -12.09765625 7.4367218 C-10.77680023 7.41791458 -10.77680023 7.41791458 -9.42926025 7.39872742 C-8.66601566 7.39411845 -7.90277107 7.38950949 -7.11639786 7.38476086 C-4.36081263 6.88379582 -3.00646192 5.93837831 -1 4 C-0.67 2.68 -0.34 1.36 0 0 Z " fill="#BAAFB9" transform="translate(287,423)"/>
<path d="M0 0 C0.66 -0.02191406 1.32 -0.04382812 2 -0.06640625 C5.18433787 0.93491874 6.20970753 2.80204389 8 5.5625 C8.45410156 9.06762695 8.45410156 9.06762695 8.390625 13.05078125 C8.38496521 13.75397995 8.37930542 14.45717865 8.37347412 15.1816864 C8.35119769 17.41350248 8.30102373 19.64367461 8.25 21.875 C8.22992343 23.39385691 8.21167468 24.91273916 8.1953125 26.43164062 C8.15136357 30.14245545 8.08239921 33.8523171 8 37.5625 C8.68199463 37.54219727 9.36398926 37.52189453 10.06665039 37.50097656 C10.96375732 37.48518555 11.86086426 37.46939453 12.78515625 37.453125 C13.67340088 37.43282227 14.56164551 37.41251953 15.47680664 37.39160156 C20.12057045 37.70612838 22.80481867 40.24367923 25.8125 43.5625 C28.14597093 47.4925563 28.12817587 51.23737423 28.1328125 55.7421875 C28.13506836 56.97146973 28.13732422 58.20075195 28.13964844 59.46728516 C28.13481445 60.77745605 28.12998047 62.08762695 28.125 63.4375 C28.12278442 64.10368347 28.12056885 64.76986694 28.11828613 65.45623779 C28.09993773 70.15865234 28.05527759 74.86037641 28 79.5625 C27.98743164 80.71685547 27.97486328 81.87121094 27.96191406 83.06054688 C27.91691156 86.10418567 27.84118835 89.1449355 27.75 92.1875 C27.73598145 93.08581543 27.72196289 93.98413086 27.70751953 94.90966797 C27.55592305 98.77801795 27.46672905 100.91127336 25.171875 104.11328125 C21.93364416 106.27404319 19.79536835 106.17246991 16 105.5625 C13.4203383 103.38953397 12.15855304 101.62668248 11.65612793 98.25448608 C11.53613734 95.35255411 11.55083757 92.47806054 11.609375 89.57421875 C11.61503479 88.51588333 11.62069458 87.45754791 11.62652588 86.36714172 C11.64887652 82.99429674 11.69907224 79.6225227 11.75 76.25 C11.77006662 73.96030182 11.7883171 71.67058696 11.8046875 69.38085938 C11.84533166 63.7739973 11.92362846 58.16944418 12 52.5625 C3.75 52.5625 -4.5 52.5625 -13 52.5625 C-13 97.4425 -13 142.3225 -13 188.5625 C-4.75 188.5625 3.5 188.5625 12 188.5625 C11.97905273 186.73557617 11.95810547 184.90865234 11.93652344 183.02636719 C11.87200037 176.98747139 11.82605114 170.94865724 11.79275131 164.90951157 C11.7718839 161.24823489 11.74358294 157.58733142 11.69824219 153.92626953 C11.65475237 150.39251289 11.63085652 146.85911501 11.62049103 143.32511139 C11.60951263 141.32198748 11.57829124 139.31900774 11.54681396 137.31610107 C11.54651184 136.09513733 11.54620972 134.87417358 11.54589844 133.61621094 C11.53701599 132.54143494 11.52813354 131.46665894 11.51898193 130.35931396 C12.12207405 126.85271708 13.18813077 125.684389 16 123.5625 C19.86703085 123.01006702 21.99810839 122.81699853 25.18441772 125.18791199 C27.56148179 128.2968583 27.51840541 130.16384212 27.54931641 134.0559082 C27.57791245 136.03364983 27.57791245 136.03364983 27.60708618 138.05134583 C27.6065632 139.48865872 27.6046885 140.92597166 27.6015625 142.36328125 C27.60934104 143.84295633 27.61801134 145.32262698 27.62753296 146.80229187 C27.64244864 149.90341664 27.64188342 153.00408608 27.63134766 156.10522461 C27.61977842 160.066773 27.65356764 164.02644496 27.700037 167.9876833 C27.72960471 171.04453815 27.7312426 174.10094639 27.72501755 177.15791893 C27.72604004 178.6174916 27.73644202 180.07709057 27.75664139 181.53652382 C27.91215698 194.34798234 27.91215698 194.34798234 24.20458984 198.88745117 C21.29655947 201.71135632 18.51156078 203.44798782 14.421875 203.7578125 C13.54015625 203.73460937 12.6584375 203.71140625 11.75 203.6875 C10.85796875 203.66945312 9.9659375 203.65140625 9.046875 203.6328125 C8.37140625 203.60960937 7.6959375 203.58640625 7 203.5625 C7.02094727 204.84415039 7.04189453 206.12580078 7.06347656 207.44628906 C7.13588666 212.20219751 7.1818036 216.95805724 7.21972656 221.71435547 C7.23983969 223.77270705 7.26713397 225.83100152 7.30175781 227.88916016 C7.35028883 230.84812513 7.37297166 233.80633461 7.390625 236.765625 C7.41127014 237.68555237 7.43191528 238.60547974 7.45318604 239.55328369 C7.45541854 245.91250026 7.45541854 245.91250026 5.19433594 249.13964844 C1.93459954 251.25332709 -0.20762462 251.1719889 -4 250.5625 C-6.41736267 248.4358771 -7.80860642 246.71746887 -8.34387207 243.48739624 C-8.46327097 240.94408738 -8.44947973 238.43215701 -8.390625 235.88671875 C-8.38496521 234.9615596 -8.37930542 234.03640045 -8.37347412 233.08320618 C-8.3511448 230.13827014 -8.30095486 227.19456614 -8.25 224.25 C-8.22993054 222.24936657 -8.21168055 220.24871401 -8.1953125 218.24804688 C-8.15129125 213.35239236 -8.08228747 208.45765482 -8 203.5625 C-8.60473145 203.58135254 -9.20946289 203.60020508 -9.83251953 203.61962891 C-10.63286621 203.63429199 -11.43321289 203.64895508 -12.2578125 203.6640625 C-13.44334717 203.69234131 -13.44334717 203.69234131 -14.65283203 203.72119141 C-18.70326877 203.44734245 -20.76662784 202.01986284 -24 199.5625 C-27.6115055 194.18826615 -27.44137144 189.15181479 -27.43237305 182.90844727 C-27.4425647 181.84545914 -27.45275635 180.78247101 -27.46325684 179.68727112 C-27.49346252 176.1677626 -27.50268083 172.64852769 -27.51171875 169.12890625 C-27.52859565 166.65582913 -27.54674985 164.18276042 -27.56611633 161.70970154 C-27.61370365 155.17695822 -27.64340786 148.6442487 -27.66955566 142.11138916 C-27.69895586 135.58004465 -27.74579955 129.04882885 -27.79101562 122.51757812 C-27.8659118 111.41769623 -27.91707549 100.31789528 -27.9546032 89.21782875 C-27.97669825 83.33711524 -28.01612738 77.45735961 -28.09287167 71.5770998 C-28.12211684 69.30873987 -28.14565832 67.04040437 -28.16694641 64.7719574 C-28.19251111 62.2243332 -28.22895849 59.67677881 -28.27970886 57.12953186 C-28.32140026 51.52622389 -28.30584738 47.34120602 -25 42.5625 C-20.81198373 38.78307068 -18.46093476 37.42838545 -12.875 37.5 C-11.96492188 37.50902344 -11.05484375 37.51804688 -10.1171875 37.52734375 C-9.41851562 37.53894531 -8.71984375 37.55054688 -8 37.5625 C-8.02094727 36.5837793 -8.04189453 35.60505859 -8.06347656 34.59667969 C-8.13597963 30.95897096 -8.18183633 27.32132584 -8.21972656 23.68310547 C-8.2398188 22.10975396 -8.26709799 20.53647692 -8.30175781 18.96337891 C-8.35038494 16.69935728 -8.37299135 14.43632427 -8.390625 12.171875 C-8.41127014 11.47068542 -8.43191528 10.76949585 -8.45318604 10.04705811 C-8.4547594 6.60799863 -8.24156416 4.87283853 -6.10058594 2.12231445 C-3.8388651 0.44284741 -2.78373233 -0.00543698 0 0 Z " fill="#010201" transform="translate(276,-0.5625)"/>
<path d="M0 0 C2 1.625 2 1.625 3 4 C3 7.5 3 7.5 2 11 C-1.62846109 14.38684285 -5.77364557 16.64288204 -10.15234375 18.90625 C-11.18390846 19.44804146 -11.18390846 19.44804146 -12.23631287 20.0007782 C-13.7057997 20.77196656 -15.17652418 21.54080046 -16.64837646 22.3074646 C-20.52253031 24.32573296 -24.38752533 26.3614244 -28.25390625 28.39453125 C-29.01799805 28.79569656 -29.78208984 29.19686188 -30.56933594 29.61018372 C-36.53605892 32.74577318 -42.46753616 35.94153505 -48.375 39.1875 C-56.51481843 43.65482343 -64.6866188 48.05997824 -72.875 52.4375 C-82.61983226 57.64801697 -92.34909506 62.88616321 -102.06201172 68.15600586 C-110.44635399 72.70395217 -118.83893585 77.23654364 -127.24780273 81.73901367 C-132.77128633 84.70071281 -138.26825877 87.70000228 -143.73046875 90.7734375 C-144.81521484 91.37800781 -145.89996094 91.98257813 -147.01757812 92.60546875 C-149.07647843 93.75479942 -151.12900872 94.91564399 -153.17382812 96.08984375 C-162.39520607 101.21069246 -162.39520607 101.21069246 -168 100 C-172.64855993 96.09554408 -174.23398817 89.74646596 -176.25 84.1875 C-176.61351562 83.20845703 -176.97703125 82.22941406 -177.3515625 81.22070312 C-178.24278079 78.81675904 -179.12526419 76.40997992 -180 74 C-183.63654353 74.61793775 -186.76918682 75.61870108 -190.15283203 77.07861328 C-191.16181549 77.51110382 -192.17079895 77.94359436 -193.21035767 78.38919067 C-194.29851776 78.86146088 -195.38667786 79.33373108 -196.5078125 79.8203125 C-197.65019379 80.31167694 -198.79257507 80.80304138 -199.96957397 81.30929565 C-202.41953225 82.3637744 -204.86867293 83.41995398 -207.31665039 84.47900391 C-211.1321264 86.12926426 -214.95153579 87.77028129 -218.77148438 89.41015625 C-229.07718548 93.83708735 -239.37889304 98.2724173 -249.64205933 102.79733276 C-252.86457768 104.21781037 -256.09104209 105.62918603 -259.31781006 107.03997803 C-261.44751308 107.97690916 -263.569618 108.92969564 -265.69189453 109.88330078 C-277.25140063 114.99099578 -277.25140063 114.99099578 -284 114 C-286.90460477 111.73077752 -286.97856495 110.15004537 -287.5 106.5 C-287 103 -287 103 -284.80004883 100.93066406 C-282.1244787 99.08582941 -279.70383788 97.82591413 -276.69921875 96.609375 C-275.60424072 96.15900879 -274.5092627 95.70864258 -273.38110352 95.24462891 C-272.16221436 94.75140137 -270.9433252 94.25817383 -269.6875 93.75 C-266.91706544 92.61209208 -264.14987196 91.46639965 -261.3828125 90.3203125 C-260.22172722 89.84040359 -260.22172722 89.84040359 -259.03718567 89.35079956 C-247.29100176 84.48215417 -235.6166705 79.44245307 -223.93246841 74.42738342 C-222.08046002 73.63270645 -220.22819432 72.83863266 -218.37582397 72.0447998 C-215.98267401 71.0191785 -213.58970058 69.99314516 -211.19691467 68.9666748 C-208.90631031 67.9842327 -206.61525373 67.00284421 -204.32371521 66.02258301 C-199.51750385 63.96238482 -194.72140309 61.8893983 -189.96435547 59.71777344 C-189.22736923 59.38393646 -188.490383 59.05009949 -187.73106384 58.70614624 C-185.86123444 57.85436031 -183.99753375 56.98915342 -182.13452148 56.12255859 C-178.83197708 54.93982636 -176.47830898 54.66803222 -173 55 C-168.21104381 58.11282152 -166.71265305 63.94869844 -164.75 69.0625 C-164.38648438 69.97322266 -164.02296875 70.88394531 -163.6484375 71.82226562 C-161 78.57777256 -161 78.57777256 -161 82 C-138.02043468 69.83930938 -138.02043468 69.83930938 -115.16064453 57.45556641 C-107.88024664 53.46858527 -100.56939945 49.53984219 -93.25 45.625 C-92.65960938 45.30917969 -92.06921875 44.99335938 -91.4609375 44.66796875 C-90.26814897 44.02990502 -89.07535926 43.39184349 -87.88256836 42.75378418 C-87.2922583 42.43800415 -86.70194824 42.12222412 -86.09375 41.796875 C-85.50279541 41.48077271 -84.91184082 41.16467041 -84.30297852 40.83898926 C-70.76960851 33.5980342 -57.2598355 26.31267979 -43.76245117 19.00488281 C-41.77420369 17.92914409 -39.78480458 16.85553082 -37.79418945 15.78417969 C-32.77779596 13.07812686 -27.79737534 10.32446102 -22.85546875 7.484375 C-21.8612793 6.92057129 -20.86708984 6.35676758 -19.84277344 5.77587891 C-17.95827406 4.70503985 -16.08198081 3.61957756 -14.21582031 2.51708984 C-9.10162675 -0.36926359 -5.92282606 -1.81766834 0 0 Z " fill="#020304" transform="translate(332,242)"/>
<path d="M0 0 C3.28200929 0.95751519 4.30235514 2.71599384 6.03515625 5.59375 C6.42578125 9.14453125 6.42578125 9.14453125 6.28515625 12.90625 C6.2490625 14.16050781 6.21296875 15.41476563 6.17578125 16.70703125 C6.129375 17.65964844 6.08296875 18.61226562 6.03515625 19.59375 C7.19015625 19.51125 8.34515625 19.42875 9.53515625 19.34375 C14.29422098 19.35220305 18.25596505 20.6692761 22.03515625 23.59375 C25.69139744 28.1925562 25.46762846 32.45007709 25.43920898 38.06225586 C25.44607224 39.00919815 25.45293549 39.95614044 25.46000671 40.93177795 C25.47828656 44.05753636 25.47443543 47.18279343 25.46875 50.30859375 C25.47331124 52.48425968 25.47861664 54.65992416 25.4846344 56.83558655 C25.49356786 61.39427546 25.49113963 65.95278921 25.48120117 70.51147461 C25.46971168 76.35027201 25.4899219 82.18846463 25.51911831 88.02718258 C25.53747394 92.51994155 25.53718908 97.01255543 25.53148079 101.50534248 C25.5313275 103.65790213 25.53737847 105.81047156 25.54977226 107.96299553 C25.56466791 110.97433162 25.55401513 113.98454829 25.53686523 116.99584961 C25.5465332 117.8827951 25.55620117 118.7697406 25.56616211 119.68356323 C25.50109788 125.14592646 24.66841939 128.25996311 21.03515625 132.59375 C17.42391107 135.78508295 15.04581665 136.80692304 10.328125 136.6953125 C9.52270264 136.68064941 8.71728027 136.66598633 7.88745117 136.65087891 C7.27619385 136.63202637 6.66493652 136.61317383 6.03515625 136.59375 C6.0508667 137.80957764 6.06657715 139.02540527 6.08276367 140.27807617 C6.13714426 144.79737703 6.17153597 149.31664906 6.19995117 153.83618164 C6.21501926 155.79065823 6.23547749 157.74510112 6.26147461 159.69946289 C6.2979449 162.51196623 6.31490247 165.32402174 6.328125 168.13671875 C6.34360886 169.00773727 6.35909271 169.8787558 6.37504578 170.77616882 C6.37636013 175.53531136 6.17098163 178.74603841 3.03515625 182.59375 C0.19431984 184.01416821 -1.81961653 183.90827272 -4.96484375 183.59375 C-7.13574219 182.20019531 -7.13574219 182.20019531 -8.96484375 179.59375 C-9.52375753 176.25271399 -9.42954064 172.95717618 -9.35546875 169.578125 C-9.34980896 168.60715881 -9.34414917 167.63619263 -9.33831787 166.63580322 C-9.31594686 163.53794831 -9.26574848 160.44125467 -9.21484375 157.34375 C-9.19477972 155.24220422 -9.17652878 153.14064028 -9.16015625 151.0390625 C-9.11607955 145.8901783 -9.04704633 140.74216097 -8.96484375 135.59375 C-9.78903809 135.61912842 -10.61323242 135.64450684 -11.46240234 135.6706543 C-13.0839624 135.70026245 -13.0839624 135.70026245 -14.73828125 135.73046875 C-15.80997559 135.75584717 -16.88166992 135.78122559 -17.98583984 135.80737305 C-21.00813469 135.59064563 -22.26576031 135.27078727 -24.58984375 133.40625 C-29.85989893 127.16539518 -29.33094649 120.84749317 -29.33984375 113.03125 C-29.36433594 111.89494141 -29.38882813 110.75863281 -29.4140625 109.58789062 C-29.41792969 108.49541016 -29.42179687 107.40292969 -29.42578125 106.27734375 C-29.43399902 105.28275146 -29.4422168 104.28815918 -29.45068359 103.26342773 C-28.83192428 99.86336085 -27.65872708 98.69397787 -24.96484375 96.59375 C-22.02734375 96.03125 -22.02734375 96.03125 -18.96484375 96.59375 C-16.11046836 98.64689721 -14.21588998 100.22041546 -13.56420898 103.78540039 C-13.47264974 106.34778417 -13.52912512 108.84439302 -13.65234375 111.40625 C-13.75546875 114.438125 -13.85859375 117.47 -13.96484375 120.59375 C-6.04484375 120.59375 1.87515625 120.59375 10.03515625 120.59375 C10.03515625 92.21375 10.03515625 63.83375 10.03515625 34.59375 C2.11515625 34.59375 -5.80484375 34.59375 -13.96484375 34.59375 C-13.94164063 37.36265625 -13.9184375 40.1315625 -13.89453125 42.984375 C-13.87893021 45.66845237 -13.86678804 48.35252467 -13.85498047 51.03662109 C-13.84492782 52.90090194 -13.8312837 54.76516703 -13.81396484 56.62939453 C-13.78968422 59.31026091 -13.77835328 61.99091866 -13.76953125 64.671875 C-13.75920868 65.50430725 -13.74888611 66.3367395 -13.73825073 67.19439697 C-13.73681309 74.62242535 -13.73681309 74.62242535 -15.96484375 77.59375 C-19.45608392 79.92124345 -20.85706626 80.09674316 -24.96484375 79.59375 C-27.11865234 78.22192383 -27.11865234 78.22192383 -28.96484375 75.59375 C-29.59407398 72.12454371 -29.57291454 68.68652481 -29.56640625 65.16796875 C-29.5749765 64.14701614 -29.58354675 63.12606354 -29.59237671 62.07417297 C-29.60385723 59.91479455 -29.60486818 57.75533878 -29.59619141 55.59594727 C-29.5898851 52.30284378 -29.63673379 49.01336024 -29.6875 45.72070312 C-29.69204779 43.61979619 -29.69345214 41.51887962 -29.69140625 39.41796875 C-29.70982574 38.43857834 -29.72824524 37.45918793 -29.7472229 36.45011902 C-29.66796946 30.5492615 -28.74968316 27.24998489 -24.64242554 22.93977356 C-21.04323289 20.05192741 -18.29670386 19.34817473 -13.71484375 19.46875 C-12.8228125 19.48679688 -11.93078125 19.50484375 -11.01171875 19.5234375 C-10.33625 19.54664063 -9.66078125 19.56984375 -8.96484375 19.59375 C-9.01705078 17.91345703 -9.01705078 17.91345703 -9.0703125 16.19921875 C-9.09845214 14.72657749 -9.12575212 13.25392002 -9.15234375 11.78125 C-9.17748047 11.04326172 -9.20261719 10.30527344 -9.22851562 9.54492188 C-9.30213606 4.12155 -9.30213606 4.12155 -7.69921875 1.61328125 C-5.24980041 0.17342047 -2.7929282 0.12915275 0 0 Z " fill="#020605" transform="translate(100.96484375,122.40625)"/>
<path d="M0 0 C2.65846017 -0.21574202 5.26271435 -0.2428412 7.92991257 -0.20880699 C8.93844284 -0.21932091 9.94697311 -0.22983482 10.98606491 -0.24066734 C14.32214304 -0.26709085 17.65631482 -0.24958664 20.99241257 -0.2293148 C23.30882255 -0.2333557 25.62523005 -0.23917808 27.94163132 -0.24670982 C32.79734639 -0.25555957 37.65239942 -0.24268542 42.50803757 -0.21466637 C48.73635678 -0.18048061 54.9631249 -0.20016149 61.19138718 -0.23610115 C65.97495362 -0.25776909 70.75815151 -0.25088812 75.54172897 -0.2353344 C77.83828031 -0.23132815 80.13486498 -0.23625693 82.43137741 -0.25021172 C85.64012561 -0.26543009 88.84635252 -0.24225619 92.05491257 -0.20880699 C93.00672409 -0.22095238 93.95853561 -0.23309776 94.93918991 -0.24561119 C97.43705027 -0.19730113 99.58802469 -0.11280608 101.99241257 0.5675602 C104.43914413 3.57868385 104.43914413 3.57868385 105.99241257 6.5675602 C108.82820796 7.30449982 108.82820796 7.30449982 111.97288132 6.98552895 C113.71384079 6.93851845 113.71384079 6.93851845 115.48997116 6.89055824 C116.70765182 6.84584389 117.92533249 6.80112953 119.17991257 6.7550602 C132.80941012 6.7095512 132.80941012 6.7095512 136.59788132 9.8488102 C138.79403572 12.66109742 140.41589974 15.37456661 141.99241257 18.5675602 C142.97443955 19.80763807 143.98901423 21.02378696 145.05491257 22.1925602 C146.99241257 24.5675602 146.99241257 24.5675602 146.99241257 25.5675602 C82.97241257 25.5675602 18.95241257 25.5675602 -47.00758743 25.5675602 C-44.49279497 21.37623942 -42.1790152 18.40233651 -38.88258743 14.8800602 C-35.56414944 11.49136143 -35.56414944 11.49136143 -33.00758743 7.5675602 C-32.21062454 7.56868813 -31.41366165 7.56981606 -30.59254837 7.57097816 C-26.98003279 7.55886976 -23.36963416 7.50123304 -19.75758743 7.4425602 C-18.50332962 7.44513832 -17.24907181 7.44771645 -15.95680618 7.4503727 C-14.75153275 7.42459145 -13.54625931 7.3988102 -12.30446243 7.3722477 C-10.63915482 7.35653725 -10.63915482 7.35653725 -8.94020462 7.34050941 C-7.97244095 7.08543617 -7.00467728 6.83036293 -6.00758743 6.5675602 C-5.49206314 5.57763069 -4.97653885 4.58770119 -4.44539261 3.56777382 C-2.00758743 0.5675602 -2.00758743 0.5675602 0 0 Z " fill="#EEECEE" transform="translate(206.00758743286133,471.43243980407715)"/>
<path d="M0 0 C8.25 0 16.5 0 25 0 C25.03738281 3.41859375 25.07476562 6.8371875 25.11328125 10.359375 C25.15948765 13.66901055 25.21072464 16.97853261 25.26245117 20.28808594 C25.29571251 22.58879708 25.32374063 24.88959006 25.34643555 27.19042969 C25.37995873 30.49709968 25.4322746 33.80301888 25.48828125 37.109375 C25.49467117 38.13867126 25.5010611 39.16796753 25.50764465 40.22845459 C25.53733589 41.66949554 25.53733589 41.66949554 25.56762695 43.13964844 C25.57873001 43.98348083 25.58983307 44.82731323 25.60127258 45.69671631 C26.09406955 48.54340098 27.00968754 49.92529055 29 52 C32.10197397 52.80946422 32.10197397 52.80946422 35 53 C34.01 53.495 34.01 53.495 33 54 C33 59.28 33 64.56 33 70 C33.99 70.495 33.99 70.495 35 71 C33.88625 71.28875 32.7725 71.5775 31.625 71.875 C27.99708908 72.69241329 27.99708908 72.69241329 26 75 C25.66778599 77.66966114 25.66778599 77.66966114 25.68115234 80.82666016 C25.66128265 82.04777496 25.64141296 83.26888977 25.62094116 84.52700806 C25.60906392 85.86435769 25.59740111 87.20170925 25.5859375 88.5390625 C25.56723251 89.90385112 25.5476596 91.26862811 25.5272522 92.63339233 C25.47585395 96.22706243 25.43626973 99.82077005 25.39910889 103.41461182 C25.35911721 107.0811904 25.3080029 110.74761185 25.2578125 114.4140625 C25.16096215 121.60927556 25.0776147 128.80454903 25 136 C16.75 136 8.5 136 0 136 C0 91.12 0 46.24 0 0 Z " fill="#69EFBD" transform="translate(263,52)"/>
<path d="M0 0 C7.92 0 15.84 0 24 0 C24 28.38 24 56.76 24 86 C16.08 86 8.16 86 0 86 C-0.25 76.75 -0.25 76.75 -0.29785156 73.85449219 C-0.48393717 68.81089601 -0.48393717 68.81089601 -2.859375 64.453125 C-5.02698551 62.84034483 -5.02698551 62.84034483 -8 62 C-8 56.39 -8 50.78 -8 45 C-6.02 44.34 -4.04 43.68 -2 43 C-1.0114922 41.14733428 -1.0114922 41.14733428 -1 39 C-0.94778793 38.35266907 -0.89557587 37.70533813 -0.84178162 37.03839111 C-0.81846519 36.01246857 -0.81846519 36.01246857 -0.79467773 34.96582031 C-0.77473251 34.18531311 -0.75478729 33.40480591 -0.73423767 32.60064697 C-0.70916893 31.3519986 -0.70916893 31.3519986 -0.68359375 30.078125 C-0.66281265 29.21813904 -0.64203156 28.35815308 -0.62062073 27.47210693 C-0.55536261 24.73148402 -0.49635083 21.99076725 -0.4375 19.25 C-0.39429219 17.3893133 -0.35067718 15.52863602 -0.30664062 13.66796875 C-0.19894106 9.11207388 -0.09969132 4.5561053 0 0 Z " fill="#6BF4C1" transform="translate(87,157)"/>
<path d="M0 0 C8.25 0 16.5 0 25 0 C25 28.71 25 57.42 25 87 C16.75 87 8.5 87 0 87 C0 58.29 0 29.58 0 0 Z " fill="#E75367" transform="translate(352,133)"/>
<path d="M0 0 C8.25 0 16.5 0 25 0 C25 28.71 25 57.42 25 87 C16.75 87 8.5 87 0 87 C0 58.29 0 29.58 0 0 Z " fill="#E75367" transform="translate(175,116)"/>
<path d="M0 0 C1.05469986 -0.00043808 1.05469986 -0.00043808 2.13070679 -0.00088501 C4.43573707 0.00049917 6.74043691 0.01601681 9.04541016 0.03173828 C10.65109073 0.03547167 12.2567736 0.0383171 13.86245728 0.04031372 C18.07434455 0.04792457 22.28609237 0.06755099 26.4979248 0.08972168 C30.80149449 0.11023518 35.10508685 0.11932718 39.40869141 0.12939453 C47.84235606 0.15079946 56.27588091 0.18596065 64.70947266 0.22705078 C64.70947266 5.50705078 64.70947266 10.78705078 64.70947266 16.22705078 C63.23994141 16.25283203 61.77041016 16.27861328 60.25634766 16.30517578 C58.32402629 16.36145699 56.39173578 16.41880432 54.45947266 16.47705078 C53.49138672 16.49123047 52.52330078 16.50541016 51.52587891 16.52001953 C45.95260108 16.63419582 45.95260108 16.63419582 41.10009766 19.08642578 C39.55688939 21.26541083 39.55688939 21.26541083 38.70947266 24.22705078 C18.24947266 24.22705078 -2.21052734 24.22705078 -23.29052734 24.22705078 C-23.29052734 12.16111672 -23.29052734 12.16111672 -18.29052734 6.22705078 C-12.89067933 0.96566041 -7.37135875 -0.02586442 0 0 Z " fill="#C8BFC8" transform="translate(269.29052734375,447.77294921875)"/>
<path d="M0 0 C4.15498647 1.16151009 8.15764501 2.6528962 12.1875 4.1875 C13.80688477 4.76854492 13.80688477 4.76854492 15.45898438 5.36132812 C25.78153691 9.23789192 25.78153691 9.23789192 28 14 C27.96663574 19.66358281 25.23305085 25.30960244 23.25 30.5625 C22.91484375 31.49513672 22.5796875 32.42777344 22.234375 33.38867188 C20.24522502 38.67423518 18.53825546 42.52870959 14 46 C10.04314116 46.16150444 8.54116672 45.47178637 5.5625 42.875 C3.51820683 39.11350057 4.01412912 37.09515596 5 33 C5.33 32.01 5.66 31.02 6 30 C2.10305103 32.07967138 -1.79299447 34.16102285 -5.68823242 36.24389648 C-7.01188196 36.95138385 -8.33577194 37.65842157 -9.65991211 38.36499023 C-11.56949115 39.38405479 -13.47818312 40.40476419 -15.38671875 41.42578125 C-17.10701294 42.34484253 -17.10701294 42.34484253 -18.86206055 43.2824707 C-20.85973948 44.37588635 -22.83600216 45.51010301 -24.7800293 46.69628906 C-28.41704735 48.83218221 -30.83938959 48.46974634 -35 48 C-37.90460477 45.73077752 -37.97856495 44.15004537 -38.5 40.5 C-38 37 -38 37 -35.90722656 35.0222168 C-32.71729097 32.80335246 -29.42517819 30.93384724 -25.984375 29.14453125 C-25.32794006 28.79742599 -24.67150513 28.45032074 -23.99517822 28.09269714 C-21.91604032 26.99430131 -19.83326001 25.90305432 -17.75 24.8125 C-15.653121 23.7100296 -13.55704765 22.60606726 -11.4619751 21.50016785 C-10.16218463 20.81455956 -8.86123048 20.13115205 -7.559021 19.45014954 C-4.58889779 18.00051103 -4.58889779 18.00051103 -2 16 C-2.928125 15.5875 -3.85625 15.175 -4.8125 14.75 C-7.9384333 13.03380133 -9.35432921 12.10848926 -11 9 C-11.57662998 5.70497154 -11.31878245 4.47179802 -9.4375 1.6875 C-6.20556259 -0.54999513 -3.77029178 -0.53720174 0 0 Z " fill="#020304" transform="translate(445,161)"/>
<path d="M0 0 C2.49788848 -0.16118305 4.93325055 -0.14118236 7.43487549 -0.05276489 C8.79144257 -0.04003036 8.79144257 -0.04003036 10.17541504 -0.02703857 C13.05999606 0.00651176 15.9417667 0.08179185 18.82550049 0.15817261 C20.78249132 0.1882702 22.73952604 0.21564637 24.69659424 0.24020386 C29.49064351 0.30630829 34.2825958 0.40983975 39.07550049 0.53317261 C36.95559717 4.16036216 34.7590065 7.14640953 31.88800049 10.22067261 C28.46408706 13.88188499 28.46408706 13.88188499 25.60227966 17.97816467 C22.86052499 22.20010304 20.79621278 25.06849646 15.80873108 26.4153595 C11.78753758 26.69039298 7.87933601 26.66079511 3.85675049 26.50973511 C2.38849735 26.49105488 0.92018134 26.47683392 -0.54815674 26.46685791 C-4.39019624 26.42889598 -8.22838024 26.33088545 -12.06890869 26.21981812 C-15.9968042 26.1170256 -19.92533066 26.07174543 -23.85418701 26.02145386 C-31.54603831 25.91459941 -39.23472629 25.74422501 -46.92449951 25.53317261 C-44.5816155 21.4923558 -41.997235 18.26249493 -38.79949951 14.84567261 C-35.48106152 11.45697385 -35.48106152 11.45697385 -32.92449951 7.53317261 C-32.12753662 7.53430054 -31.33057373 7.53542847 -30.50946045 7.53659058 C-26.89694487 7.52448217 -23.28654623 7.46684545 -19.67449951 7.40817261 C-18.4202417 7.41075073 -17.16598389 7.41332886 -15.87371826 7.41598511 C-14.66844482 7.39020386 -13.46317139 7.36442261 -12.22137451 7.33786011 C-10.55606689 7.32214966 -10.55606689 7.32214966 -8.8571167 7.30612183 C-5.61815742 6.81728083 -5.61815742 6.81728083 -4.11590576 3.51950073 C-1.92449951 0.53317261 -1.92449951 0.53317261 0 0 Z " fill="#E3DFE3" transform="translate(205.92449951171875,471.4668273925781)"/>
</svg>
